<svg width="8" height="26" viewBox="0 0 8 26" fill="none" xmlns="http://www.w3.org/2000/svg">
<path d="M6.02234 25.5V21.0742" stroke="#FB1014" stroke-width="2"/>
<path d="M4.00903 19.8154C4.00903 18.8516 4.79034 18.0695 5.75415 18.0693C6.71811 18.0693 7.50024 18.8515 7.50024 19.8154C7.5001 20.7793 6.71802 21.5605 5.75415 21.5605C4.79043 21.5604 4.00918 20.7792 4.00903 19.8154Z" stroke="#FB1014"/>
<path d="M4.00903 6.53027C4.00903 5.56641 4.79034 4.78436 5.75415 4.78418C6.71811 4.78418 7.50024 5.5663 7.50024 6.53027C7.5001 7.49412 6.71802 8.27539 5.75415 8.27539C4.79043 8.27521 4.00918 7.49401 4.00903 6.53027Z" stroke="#FB1014"/>
<path d="M6.14233 0.5L6.14233 4.92583" stroke="#FB1014" stroke-width="2"/>
<path d="M3.68996 18.3828C1.65637 16.6882 -1.19066 12.1149 3.68996 7.37805" stroke="#FB1014" stroke-width="2"/>
</svg>
